<!DOCTYPE svg PUBLIC "-//W3C//DTD SVG 1.1//EN" "http://www.w3.org/Graphics/SVG/1.1/DTD/svg11.dtd">
<!-- Uploaded to: SVG Repo, www.svgrepo.com, Transformed by: SVG Repo Mixer Tools -->
<svg width="64px" height="64px" viewBox="0 0 16.00 16.00" fill="none" xmlns="http://www.w3.org/2000/svg" stroke="#806b6b" stroke-width="0.00016">
<g id="SVGRepo_bgCarrier" stroke-width="0"/>
<g id="SVGRepo_tracerCarrier" stroke-linecap="round" stroke-linejoin="round" stroke="#CCCCCC" stroke-width="0.096"/>
<g id="SVGRepo_iconCarrier"> <path d="M11 3C11 4.30622 10.1652 5.41746 9 5.82929V13.917C11.5125 13.4955 13.4955 11.5125 13.917 9H12V7H16V8C16 12.4183 12.4183 16 8 16C3.58172 16 0 12.4183 0 8V7H4V9H2.08296C2.50448 11.5125 4.48749 13.4955 7 13.917V5.82929C5.83481 5.41746 5 4.30622 5 3C5 1.34315 6.34315 0 8 0C9.65685 0 11 1.34315 11 3Z" fill="#FFFFFF"/> </g>
</svg>